ffmpeg started on 2026-01-18 at 20:11:31
Report written to "C:\Dev\OSPanel\domains\Java-AT\modules\ffmpeg\FFMetrics\reports\ssim_report-6.txt"
Log level: 32
Command line:
ffmpeg -hide_banner -nostdin -r 24000/1001 -i "F:\\Convert\\files\\[DC] Make Heroine ga Oosugiru - 07_Telegram_HEVC(156).mkv" -r 24000/1001 -i "F:\\Convert\\files\\[DC] Make Heroine ga Oosugiru - 07_Telegram.mp4" -lavfi "[0:v]settb=AVTB,setpts=PTS-STARTPTS,format=pix_fmts=yuv420p10le,fps=24000/1001,scale=1920:1080:flags=lanczos:param0=3:out_range=limited:out_color_matrix=bt709:out_chroma_loc=left,setsar=1/1,setdar=(1920/1080)*(1/1),colorspace=format=yuv420p10:range=tv:primaries=bt709:trc=bt709:space=bt709:fast=0[main];[1:v]settb=AVTB,setpts=PTS-STARTPTS,format=pix_fmts=yuv420p,fps=24000/1001,scale=1920:1080:flags=lanczos:param0=3:out_range=limited:out_color_matrix=bt709:out_chroma_loc=left,setsar=1.000,setdar=1.778,colorspace=format=yuv420p:range=tv:primaries=bt709:trc=bt709:space=bt709:fast=0[ref];[main][ref]ssim=eof_action=endall:stats_file='C\\:/Dev/OSPanel/domains/Java-AT/modules/ffmpeg/FFMetrics/logs/ssim_logfile-6.txt'" -f null -
Input #0, matroska,webm, from 'F:\Convert\files\[DC] Make Heroine ga Oosugiru - 07_Telegram_HEVC(156).mkv':
  Metadata:
    COMPATIBLE_BRANDS: isomiso2avc1mp41
    MAJOR_BRAND     : isom
    MINOR_VERSION   : 512
    ENCODER         : Lavf61.7.100
  Duration: 00:24:06.79, start: -0.021000, bitrate: 980 kb/s
  Stream #0:0: Video: hevc (Main 10), yuv420p10le(tv, bt709, progressive), 1920x1080 [SAR 1:1 DAR 16:9], 23.98 fps, 23.98 tbr, 1k tbn (default)
      Metadata:
        HANDLER_NAME    : VideoHandler
        VENDOR_ID       : [0][0][0][0]
        ENCODER         : Lavc61.19.100 libx265
        BPS             : 782932
        DURATION        : 00:24:06.569708333
        NUMBER_OF_FRAMES: 34683
        NUMBER_OF_BYTES : 141570723
        _STATISTICS_WRITING_APP: mkvpropedit v94.0 ('Initiate') 64-bit
        _STATISTICS_WRITING_DATE_UTC: 2026-01-17 17:25:21
        _STATISTICS_TAGS: BPS DURATION NUMBER_OF_FRAMES NUMBER_OF_BYTES
  Stream #0:1: Audio: aac (LC), 48000 Hz, stereo, fltp (default)
      Metadata:
        HANDLER_NAME    : SoundHandler
        VENDOR_ID       : [0][0][0][0]
        ENCODER         : Lavc61.19.100 aac
        BPS             : 193194
        DURATION        : 00:24:06.784000000
        NUMBER_OF_FRAMES: 67819
        NUMBER_OF_BYTES : 34938755
        _STATISTICS_WRITING_APP: mkvpropedit v94.0 ('Initiate') 64-bit
        _STATISTICS_WRITING_DATE_UTC: 2026-01-17 17:25:21
        _STATISTICS_TAGS: BPS DURATION NUMBER_OF_FRAMES NUMBER_OF_BYTES
Input #1, mov,mp4,m4a,3gp,3g2,mj2, from 'F:\Convert\files\[DC] Make Heroine ga Oosugiru - 07_Telegram.mp4':
  Metadata:
    major_brand     : isom
    minor_version   : 512
    compatible_brands: isomiso2avc1mp41
    encoder         : Lavf60.16.100
  Duration: 00:24:06.74, start: 0.000000, bitrate: 3764 kb/s
  Stream #1:0[0x1](und): Video: h264 (High) (avc1 / 0x31637661), yuv420p(tv, bt709, progressive), 1920x1080 [SAR 1:1 DAR 16:9], 3616 kb/s, 23.98 fps, 23.98 tbr, 24k tbn (default)
      Metadata:
        handler_name    : VideoHandler
        vendor_id       : [0][0][0][0]
        encoder         : Lavc60.31.102 h264_qsv
  Stream #1:1[0x2](und): Audio: aac (HE-AACv2) (mp4a / 0x6134706D), 48000 Hz, stereo, fltp, 144 kb/s (default)
      Metadata:
        handler_name    : SoundHandler
        vendor_id       : [0][0][0][0]
Stream mapping:
  Stream #0:0 (hevc) -> settb:default
  Stream #1:0 (h264) -> settb:default
  ssim:default -> Stream #0:0 (wrapped_avframe)
  Stream #0:1 -> #0:1 (aac (native) -> pcm_s16le (native))
Output #0, null, to 'pipe:':
  Metadata:
    COMPATIBLE_BRANDS: isomiso2avc1mp41
    MAJOR_BRAND     : isom
    MINOR_VERSION   : 512
    encoder         : Lavf61.7.100
  Stream #0:0: Video: wrapped_avframe, yuv420p10le(tv, bt709, progressive), 1920x1080 [SAR 1:1 DAR 16:9], q=2-31, 200 kb/s, 23.98 fps, 23.98 tbn
      Metadata:
        encoder         : Lavc61.19.100 wrapped_avframe
  Stream #0:1: Audio: pcm_s16le, 48000 Hz, stereo, s16, 1536 kb/s (default)
      Metadata:
        HANDLER_NAME    : SoundHandler
        VENDOR_ID       : [0][0][0][0]
        _STATISTICS_TAGS: BPS DURATION NUMBER_OF_FRAMES NUMBER_OF_BYTES
        BPS             : 193194
        DURATION        : 00:24:06.784000000
        NUMBER_OF_FRAMES: 67819
        NUMBER_OF_BYTES : 34938755
        _STATISTICS_WRITING_APP: mkvpropedit v94.0 ('Initiate') 64-bit
        _STATISTICS_WRITING_DATE_UTC: 2026-01-17 17:25:21
        encoder         : Lavc61.19.100 pcm_s16le
frame=  120 fps=0.0 q=-0.0 size=N/A time=00:00:05.00 bitrate=N/A speed=9.97x    frame=  310 fps=301 q=-0.0 size=N/A time=00:00:12.92 bitrate=N/A speed=12.5x    frame=  508 fps=329 q=-0.0 size=N/A time=00:00:21.18 bitrate=N/A speed=13.7x    frame=  705 fps=343 q=-0.0 size=N/A time=00:00:29.40 bitrate=N/A speed=14.3x    frame=  886 fps=345 q=-0.0 size=N/A time=00:00:36.95 bitrate=N/A speed=14.4x    frame= 1030 fps=334 q=-0.0 size=N/A time=00:00:42.95 bitrate=N/A speed=13.9x    frame= 1208 fps=335 q=-0.0 size=N/A time=00:00:50.38 bitrate=N/A speed=  14x    frame= 1379 fps=335 q=-0.0 size=N/A time=00:00:57.51 bitrate=N/A speed=  14x    frame= 1538 fps=332 q=-0.0 size=N/A time=00:01:04.14 bitrate=N/A speed=13.8x    frame= 1689 fps=328 q=-0.0 size=N/A time=00:01:10.44 bitrate=N/A speed=13.7x    frame= 1868 fps=329 q=-0.0 size=N/A time=00:01:17.91 bitrate=N/A speed=13.7x    frame= 2041 fps=329 q=-0.0 size=N/A time=00:01:25.12 bitrate=N/A speed=13.7x    frame= 2154 fps=321 q=-0.0 size=N/A time=00:01:29.83 bitrate=N/A speed=13.4x    frame= 2320 fps=321 q=-0.0 size=N/A time=00:01:36.76 bitrate=N/A speed=13.4x    frame= 2463 fps=318 q=-0.0 size=N/A time=00:01:42.72 bitrate=N/A speed=13.3x    frame= 2613 fps=316 q=-0.0 size=N/A time=00:01:48.98 bitrate=N/A speed=13.2x    frame= 2799 fps=319 q=-0.0 size=N/A time=00:01:56.74 bitrate=N/A speed=13.3x    frame= 2977 fps=321 q=-0.0 size=N/A time=00:02:04.16 bitrate=N/A speed=13.4x    frame= 3173 fps=324 q=-0.0 size=N/A time=00:02:12.34 bitrate=N/A speed=13.5x    frame= 3371 fps=326 q=-0.0 size=N/A time=00:02:20.59 bitrate=N/A speed=13.6x    frame= 3568 fps=329 q=-0.0 size=N/A time=00:02:28.81 bitrate=N/A speed=13.7x    frame= 3764 fps=332 q=-0.0 size=N/A time=00:02:36.99 bitrate=N/A speed=13.8x    frame= 3958 fps=334 q=-0.0 size=N/A time=00:02:45.08 bitrate=N/A speed=13.9x    frame= 4156 fps=336 q=-0.0 size=N/A time=00:02:53.33 bitrate=N/A speed=  14x    frame= 4358 fps=338 q=-0.0 size=N/A time=00:03:01.76 bitrate=N/A speed=14.1x    frame= 4548 fps=339 q=-0.0 size=N/A time=00:03:09.68 bitrate=N/A speed=14.1x    frame= 4742 fps=340 q=-0.0 size=N/A time=00:03:17.78 bitrate=N/A speed=14.2x    frame= 4936 fps=342 q=-0.0 size=N/A time=00:03:25.87 bitrate=N/A speed=14.3x    frame= 5139 fps=343 q=-0.0 size=N/A time=00:03:34.33 bitrate=N/A speed=14.3x    frame= 5332 fps=345 q=-0.0 size=N/A time=00:03:42.38 bitrate=N/A speed=14.4x    frame= 5523 fps=345 q=-0.0 size=N/A time=00:03:50.35 bitrate=N/A speed=14.4x    frame= 5729 fps=347 q=-0.0 size=N/A time=00:03:58.94 bitrate=N/A speed=14.5x    frame= 5924 fps=348 q=-0.0 size=N/A time=00:04:07.08 bitrate=N/A speed=14.5x    frame= 6118 fps=349 q=-0.0 size=N/A time=00:04:15.17 bitrate=N/A speed=14.5x    frame= 6314 fps=350 q=-0.0 size=N/A time=00:04:23.34 bitrate=N/A speed=14.6x    frame= 6509 fps=351 q=-0.0 size=N/A time=00:04:31.47 bitrate=N/A speed=14.6x    frame= 6709 fps=351 q=-0.0 size=N/A time=00:04:39.82 bitrate=N/A speed=14.7x    frame= 6907 fps=352 q=-0.0 size=N/A time=00:04:48.07 bitrate=N/A speed=14.7x    frame= 7097 fps=353 q=-0.0 size=N/A time=00:04:56.00 bitrate=N/A speed=14.7x    frame= 7289 fps=353 q=-0.0 size=N/A time=00:05:04.01 bitrate=N/A speed=14.7x    frame= 7479 fps=354 q=-0.0 size=N/A time=00:05:11.93 bitrate=N/A speed=14.8x    frame= 7675 fps=354 q=-0.0 size=N/A time=00:05:20.11 bitrate=N/A speed=14.8x    frame= 7869 fps=355 q=-0.0 size=N/A time=00:05:28.20 bitrate=N/A speed=14.8x    frame= 8060 fps=355 q=-0.0 size=N/A time=00:05:36.16 bitrate=N/A speed=14.8x    frame= 8254 fps=356 q=-0.0 size=N/A time=00:05:44.26 bitrate=N/A speed=14.8x    frame= 8447 fps=356 q=-0.0 size=N/A time=00:05:52.31 bitrate=N/A speed=14.9x    frame= 8644 fps=356 q=-0.0 size=N/A time=00:06:00.52 bitrate=N/A speed=14.9x    frame= 8832 fps=357 q=-0.0 size=N/A time=00:06:08.36 bitrate=N/A speed=14.9x    frame= 9025 fps=357 q=-0.0 size=N/A time=00:06:16.41 bitrate=N/A speed=14.9x    frame= 9222 fps=358 q=-0.0 size=N/A time=00:06:24.63 bitrate=N/A speed=14.9x    frame= 9418 fps=358 q=-0.0 size=N/A time=00:06:32.80 bitrate=N/A speed=14.9x    frame= 9614 fps=358 q=-0.0 size=N/A time=00:06:40.98 bitrate=N/A speed=14.9x    frame= 9805 fps=359 q=-0.0 size=N/A time=00:06:48.95 bitrate=N/A speed=  15x    frame=10003 fps=359 q=-0.0 size=N/A time=00:06:57.20 bitrate=N/A speed=  15x    frame=10195 fps=359 q=-0.0 size=N/A time=00:07:05.21 bitrate=N/A speed=  15x    frame=10392 fps=360 q=-0.0 size=N/A time=00:07:13.43 bitrate=N/A speed=  15x    frame=10582 fps=360 q=-0.0 size=N/A time=00:07:21.35 bitrate=N/A speed=  15x    frame=10773 fps=360 q=-0.0 size=N/A time=00:07:29.32 bitrate=N/A speed=  15x    frame=10971 fps=360 q=-0.0 size=N/A time=00:07:37.58 bitrate=N/A speed=  15x    frame=11168 fps=361 q=-0.0 size=N/A time=00:07:45.79 bitrate=N/A speed=  15x    frame=11354 fps=361 q=-0.0 size=N/A time=00:07:53.55 bitrate=N/A speed=  15x    frame=11558 fps=361 q=-0.0 size=N/A time=00:08:02.06 bitrate=N/A speed=15.1x    frame=11746 fps=361 q=-0.0 size=N/A time=00:08:09.90 bitrate=N/A speed=15.1x    frame=11947 fps=362 q=-0.0 size=N/A time=00:08:18.28 bitrate=N/A speed=15.1x    frame=12137 fps=362 q=-0.0 size=N/A time=00:08:26.21 bitrate=N/A speed=15.1x    frame=12331 fps=362 q=-0.0 size=N/A time=00:08:34.30 bitrate=N/A speed=15.1x    frame=12524 fps=362 q=-0.0 size=N/A time=00:08:42.35 bitrate=N/A speed=15.1x    frame=12718 fps=362 q=-0.0 size=N/A time=00:08:50.44 bitrate=N/A speed=15.1x    frame=12918 fps=363 q=-0.0 size=N/A time=00:08:58.78 bitrate=N/A speed=15.1x    frame=13110 fps=363 q=-0.0 size=N/A time=00:09:06.79 bitrate=N/A speed=15.1x    frame=13300 fps=363 q=-0.0 size=N/A time=00:09:14.72 bitrate=N/A speed=15.1x    frame=13495 fps=363 q=-0.0 size=N/A time=00:09:22.85 bitrate=N/A speed=15.1x    frame=13685 fps=363 q=-0.0 size=N/A time=00:09:30.77 bitrate=N/A speed=15.2x    frame=13880 fps=364 q=-0.0 size=N/A time=00:09:38.91 bitrate=N/A speed=15.2x    frame=14074 fps=364 q=-0.0 size=N/A time=00:09:47.00 bitrate=N/A speed=15.2x    frame=14257 fps=364 q=-0.0 size=N/A time=00:09:54.63 bitrate=N/A speed=15.2x    frame=14453 fps=364 q=-0.0 size=N/A time=00:10:02.81 bitrate=N/A speed=15.2x    frame=14645 fps=364 q=-0.0 size=N/A time=00:10:10.81 bitrate=N/A speed=15.2x    frame=14837 fps=364 q=-0.0 size=N/A time=00:10:18.82 bitrate=N/A speed=15.2x    frame=15030 fps=364 q=-0.0 size=N/A time=00:10:26.87 bitrate=N/A speed=15.2x    frame=15207 fps=364 q=-0.0 size=N/A time=00:10:34.25 bitrate=N/A speed=15.2x    frame=15399 fps=364 q=-0.0 size=N/A time=00:10:42.26 bitrate=N/A speed=15.2x    frame=15590 fps=364 q=-0.0 size=N/A time=00:10:50.23 bitrate=N/A speed=15.2x    frame=15783 fps=364 q=-0.0 size=N/A time=00:10:58.28 bitrate=N/A speed=15.2x    frame=15981 fps=364 q=-0.0 size=N/A time=00:11:06.54 bitrate=N/A speed=15.2x    frame=16179 fps=365 q=-0.0 size=N/A time=00:11:14.79 bitrate=N/A speed=15.2x    frame=16373 fps=365 q=-0.0 size=N/A time=00:11:22.89 bitrate=N/A speed=15.2x    frame=16562 fps=365 q=-0.0 size=N/A time=00:11:30.77 bitrate=N/A speed=15.2x    frame=16753 fps=365 q=-0.0 size=N/A time=00:11:38.73 bitrate=N/A speed=15.2x    frame=16954 fps=365 q=-0.0 size=N/A time=00:11:47.12 bitrate=N/A speed=15.2x    frame=17140 fps=365 q=-0.0 size=N/A time=00:11:54.88 bitrate=N/A speed=15.2x    frame=17328 fps=365 q=-0.0 size=N/A time=00:12:02.72 bitrate=N/A speed=15.2x    frame=17519 fps=365 q=-0.0 size=N/A time=00:12:10.68 bitrate=N/A speed=15.2x    frame=17708 fps=365 q=-0.0 size=N/A time=00:12:18.57 bitrate=N/A speed=15.2x    frame=17892 fps=365 q=-0.0 size=N/A time=00:12:26.24 bitrate=N/A speed=15.2x    frame=18080 fps=365 q=-0.0 size=N/A time=00:12:34.08 bitrate=N/A speed=15.2x    frame=18272 fps=365 q=-0.0 size=N/A time=00:12:42.09 bitrate=N/A speed=15.2x    frame=18463 fps=365 q=-0.0 size=N/A time=00:12:50.06 bitrate=N/A speed=15.2x    frame=18652 fps=365 q=-0.0 size=N/A time=00:12:57.94 bitrate=N/A speed=15.2x    frame=18848 fps=365 q=-0.0 size=N/A time=00:13:06.11 bitrate=N/A speed=15.2x    frame=19039 fps=365 q=-0.0 size=N/A time=00:13:14.08 bitrate=N/A speed=15.2x    frame=19236 fps=366 q=-0.0 size=N/A time=00:13:22.30 bitrate=N/A speed=15.2x    frame=19423 fps=366 q=-0.0 size=N/A time=00:13:30.10 bitrate=N/A speed=15.2x    frame=19620 fps=366 q=-0.0 size=N/A time=00:13:38.31 bitrate=N/A speed=15.3x    frame=19819 fps=366 q=-0.0 size=N/A time=00:13:46.61 bitrate=N/A speed=15.3x    frame=20017 fps=366 q=-0.0 size=N/A time=00:13:54.87 bitrate=N/A speed=15.3x    frame=20207 fps=366 q=-0.0 size=N/A time=00:14:02.80 bitrate=N/A speed=15.3x    frame=20394 fps=366 q=-0.0 size=N/A time=00:14:10.59 bitrate=N/A speed=15.3x    frame=20579 fps=366 q=-0.0 size=N/A time=00:14:18.31 bitrate=N/A speed=15.3x    frame=20770 fps=366 q=-0.0 size=N/A time=00:14:26.28 bitrate=N/A speed=15.3x    frame=20967 fps=366 q=-0.0 size=N/A time=00:14:34.49 bitrate=N/A speed=15.3x    frame=21160 fps=366 q=-0.0 size=N/A time=00:14:42.54 bitrate=N/A speed=15.3x    frame=21352 fps=366 q=-0.0 size=N/A time=00:14:50.55 bitrate=N/A speed=15.3x    frame=21549 fps=366 q=-0.0 size=N/A time=00:14:58.77 bitrate=N/A speed=15.3x    frame=21740 fps=366 q=-0.0 size=N/A time=00:15:06.73 bitrate=N/A speed=15.3x    frame=21932 fps=366 q=-0.0 size=N/A time=00:15:14.74 bitrate=N/A speed=15.3x    frame=22130 fps=367 q=-0.0 size=N/A time=00:15:23.00 bitrate=N/A speed=15.3x    frame=22331 fps=367 q=-0.0 size=N/A time=00:15:31.38 bitrate=N/A speed=15.3x    frame=22524 fps=367 q=-0.0 size=N/A time=00:15:39.43 bitrate=N/A speed=15.3x    frame=22713 fps=367 q=-0.0 size=N/A time=00:15:47.32 bitrate=N/A speed=15.3x    frame=22905 fps=367 q=-0.0 size=N/A time=00:15:55.32 bitrate=N/A speed=15.3x    frame=23109 fps=367 q=-0.0 size=N/A time=00:16:03.83 bitrate=N/A speed=15.3x    frame=23303 fps=367 q=-0.0 size=N/A time=00:16:11.92 bitrate=N/A speed=15.3x    frame=23501 fps=367 q=-0.0 size=N/A time=00:16:20.18 bitrate=N/A speed=15.3x    frame=23692 fps=367 q=-0.0 size=N/A time=00:16:28.15 bitrate=N/A speed=15.3x    frame=23897 fps=368 q=-0.0 size=N/A time=00:16:36.70 bitrate=N/A speed=15.3x    frame=24101 fps=368 q=-0.0 size=N/A time=00:16:45.21 bitrate=N/A speed=15.3x    frame=24287 fps=368 q=-0.0 size=N/A time=00:16:52.97 bitrate=N/A speed=15.3x    frame=24476 fps=368 q=-0.0 size=N/A time=00:17:00.85 bitrate=N/A speed=15.3x    frame=24674 fps=368 q=-0.0 size=N/A time=00:17:09.11 bitrate=N/A speed=15.3x    frame=24869 fps=368 q=-0.0 size=N/A time=00:17:17.24 bitrate=N/A speed=15.3x    frame=25070 fps=368 q=-0.0 size=N/A time=00:17:25.62 bitrate=N/A speed=15.3x    frame=25263 fps=368 q=-0.0 size=N/A time=00:17:33.67 bitrate=N/A speed=15.4x    frame=25458 fps=368 q=-0.0 size=N/A time=00:17:41.81 bitrate=N/A speed=15.4x    frame=25645 fps=368 q=-0.0 size=N/A time=00:17:49.61 bitrate=N/A speed=15.4x    frame=25847 fps=368 q=-0.0 size=N/A time=00:17:58.03 bitrate=N/A speed=15.4x    frame=26054 fps=368 q=-0.0 size=N/A time=00:18:06.66 bitrate=N/A speed=15.4x    frame=26248 fps=369 q=-0.0 size=N/A time=00:18:14.76 bitrate=N/A speed=15.4x    frame=26441 fps=369 q=-0.0 size=N/A time=00:18:22.81 bitrate=N/A speed=15.4x    frame=26634 fps=369 q=-0.0 size=N/A time=00:18:30.85 bitrate=N/A speed=15.4x    frame=26839 fps=369 q=-0.0 size=N/A time=00:18:39.40 bitrate=N/A speed=15.4x    frame=27024 fps=369 q=-0.0 size=N/A time=00:18:47.12 bitrate=N/A speed=15.4x    frame=27206 fps=369 q=-0.0 size=N/A time=00:18:54.71 bitrate=N/A speed=15.4x    frame=27399 fps=369 q=-0.0 size=N/A time=00:19:02.76 bitrate=N/A speed=15.4x    frame=27589 fps=369 q=-0.0 size=N/A time=00:19:10.69 bitrate=N/A speed=15.4x    frame=27789 fps=369 q=-0.0 size=N/A time=00:19:19.03 bitrate=N/A speed=15.4x    frame=27989 fps=369 q=-0.0 size=N/A time=00:19:27.37 bitrate=N/A speed=15.4x    frame=28181 fps=369 q=-0.0 size=N/A time=00:19:35.38 bitrate=N/A speed=15.4x    frame=28374 fps=369 q=-0.0 size=N/A time=00:19:43.43 bitrate=N/A speed=15.4x    frame=28569 fps=369 q=-0.0 size=N/A time=00:19:51.56 bitrate=N/A speed=15.4x    frame=28757 fps=369 q=-0.0 size=N/A time=00:19:59.40 bitrate=N/A speed=15.4x    frame=28945 fps=369 q=-0.0 size=N/A time=00:20:07.24 bitrate=N/A speed=15.4x    frame=29126 fps=369 q=-0.0 size=N/A time=00:20:14.79 bitrate=N/A speed=15.4x    frame=29313 fps=369 q=-0.0 size=N/A time=00:20:22.59 bitrate=N/A speed=15.4x    frame=29499 fps=369 q=-0.0 size=N/A time=00:20:30.35 bitrate=N/A speed=15.4x    frame=29684 fps=369 q=-0.0 size=N/A time=00:20:38.07 bitrate=N/A speed=15.4x    frame=29876 fps=369 q=-0.0 size=N/A time=00:20:46.07 bitrate=N/A speed=15.4x    frame=30049 fps=368 q=-0.0 size=N/A time=00:20:53.29 bitrate=N/A speed=15.4x    frame=30235 fps=368 q=-0.0 size=N/A time=00:21:01.05 bitrate=N/A speed=15.4x    frame=30425 fps=368 q=-0.0 size=N/A time=00:21:08.97 bitrate=N/A speed=15.4x    frame=30622 fps=369 q=-0.0 size=N/A time=00:21:17.19 bitrate=N/A speed=15.4x    frame=30825 fps=369 q=-0.0 size=N/A time=00:21:25.65 bitrate=N/A speed=15.4x    frame=31016 fps=369 q=-0.0 size=N/A time=00:21:33.62 bitrate=N/A speed=15.4x    frame=31211 fps=369 q=-0.0 size=N/A time=00:21:41.75 bitrate=N/A speed=15.4x    frame=31398 fps=369 q=-0.0 size=N/A time=00:21:49.55 bitrate=N/A speed=15.4x    frame=31602 fps=369 q=-0.0 size=N/A time=00:21:58.06 bitrate=N/A speed=15.4x    frame=31794 fps=369 q=-0.0 size=N/A time=00:22:06.07 bitrate=N/A speed=15.4x    frame=31983 fps=369 q=-0.0 size=N/A time=00:22:13.95 bitrate=N/A speed=15.4x    frame=32171 fps=369 q=-0.0 size=N/A time=00:22:21.79 bitrate=N/A speed=15.4x    frame=32357 fps=369 q=-0.0 size=N/A time=00:22:29.55 bitrate=N/A speed=15.4x    frame=32564 fps=369 q=-0.0 size=N/A time=00:22:38.19 bitrate=N/A speed=15.4x    frame=32726 fps=369 q=-0.0 size=N/A time=00:22:44.94 bitrate=N/A speed=15.4x    frame=32894 fps=368 q=-0.0 size=N/A time=00:22:51.95 bitrate=N/A speed=15.4x    frame=33080 fps=368 q=-0.0 size=N/A time=00:22:59.71 bitrate=N/A speed=15.4x    frame=33270 fps=368 q=-0.0 size=N/A time=00:23:07.63 bitrate=N/A speed=15.4x    frame=33452 fps=368 q=-0.0 size=N/A time=00:23:15.22 bitrate=N/A speed=15.4x    frame=33606 fps=368 q=-0.0 size=N/A time=00:23:21.65 bitrate=N/A speed=15.3x    frame=33758 fps=367 q=-0.0 size=N/A time=00:23:27.98 bitrate=N/A speed=15.3x    frame=33894 fps=367 q=-0.0 size=N/A time=00:23:33.66 bitrate=N/A speed=15.3x    frame=34069 fps=367 q=-0.0 size=N/A time=00:23:40.96 bitrate=N/A speed=15.3x    frame=34238 fps=366 q=-0.0 size=N/A time=00:23:48.00 bitrate=N/A speed=15.3x    frame=34377 fps=366 q=-0.0 size=N/A time=00:23:53.80 bitrate=N/A speed=15.3x    frame=34536 fps=366 q=-0.0 size=N/A time=00:24:00.43 bitrate=N/A speed=15.2x    [Parsed_ssim_16 @ 000001bfe73e90c0] SSIM Y:0.994164 (22.338904) U:0.993980 (22.203984) V:0.993586 (21.928586) All:0.994037 (22.245358)
[out#0/null @ 000001bfda303a00] video:14903KiB audio:271276KiB subtitle:0KiB other streams:0KiB global headers:0KiB muxing overhead: unknown
frame=34683 fps=366 q=-0.0 Lsize=N/A time=00:24:06.57 bitrate=N/A speed=15.3x    
